<?xml version="1.0" standalone="no"?>
<!DOCTYPE svg PUBLIC "-//W3C//DTD SVG 20010904//EN"
 "http://www.w3.org/TR/2001/REC-SVG-20010904/DTD/svg10.dtd">
<svg version="1.0" xmlns="http://www.w3.org/2000/svg"
 width="419.000000pt" height="579.000000pt" viewBox="0 0 419.000000 579.000000"
 preserveAspectRatio="xMidYMid meet">

<g transform="translate(0.000000,579.000000) scale(0.100000,-0.100000)"
fill="#000000" stroke="none">
<path d="M2 2892 c1 -1593 4 -2853 5 -2800 4 93 5 98 31 116 37 25 88 48 140
61 23 7 42 16 42 22 0 11 57 3 75 -11 6 -4 57 -22 115 -38 58 -17 119 -36 135
-43 17 -7 39 -14 49 -16 11 -2 25 -8 32 -14 7 -6 17 -8 23 -5 5 4 15 0 23 -7
7 -7 36 -22 63 -32 28 -10 55 -23 60 -29 11 -12 23 -16 80 -24 22 -3 53 -14
70 -24 33 -20 75 -24 75 -8 0 15 91 4 101 -12 7 -10 9 -10 9 0 0 7 5 10 10 7
10 -6 61 6 105 25 44 19 95 31 105 25 19 -12 68 5 66 23 -1 12 7 17 24 18 46
2 50 4 50 24 0 13 13 28 35 41 19 12 35 24 35 28 0 5 19 16 42 27 42 19 115
80 111 94 -1 4 9 20 24 36 14 15 30 44 35 63 12 43 34 66 66 68 34 3 47 17 61
65 7 24 25 57 40 73 16 17 45 53 65 80 21 28 39 48 41 45 2 -3 7 -2 11 2 4 5
2 8 -5 8 -17 0 3 35 56 94 23 26 43 52 43 56 0 5 14 39 32 77 l31 68 13 -30
c7 -16 13 -35 14 -42 0 -6 4 -14 8 -17 4 -2 6 26 4 62 -3 61 -1 70 23 95 14
15 23 27 19 27 -3 0 8 16 25 35 17 20 31 47 31 61 0 14 4 33 10 43 5 10 11 30
14 45 3 14 16 51 30 81 14 29 26 62 26 73 0 33 27 85 68 130 24 25 48 68 61
105 30 85 39 101 78 143 43 48 56 105 49 219 -4 50 -11 162 -16 250 -17 268
-28 334 -81 477 -33 87 -49 138 -45 138 1 0 20 -8 42 -19 21 -10 55 -22 74
-26 19 -3 72 -18 117 -31 81 -24 82 -25 88 -62 3 -20 8 -46 10 -56 6 -27 -6
-77 -16 -70 -5 3 -9 0 -9 -5 0 -6 5 -11 11 -11 8 0 9 -4 0 -13 -6 -8 -9 -16
-6 -18 2 -3 -5 -5 -15 -6 -21 -2 -27 12 -10 22 5 3 10 11 10 16 0 14 -60 -29
-67 -48 -7 -18 11 -37 29 -31 18 7 34 5 31 -4 -2 -5 2 -8 7 -8 7 0 10 -47 8
-132 l-3 -133 -40 -5 c-30 -4 -35 -7 -22 -13 10 -4 30 -7 43 -7 21 0 24 -5 24
-34 0 -19 -7 -42 -16 -50 -8 -9 -10 -16 -4 -16 7 0 7 -7 -1 -23 -11 -19 -10
-21 3 -9 13 10 17 10 21 0 3 -8 11 1 18 19 8 18 19 33 26 33 7 0 22 14 35 30
12 17 29 30 37 30 9 0 27 6 41 13 14 7 44 12 68 11 36 -2 49 -9 82 -43 22 -23
46 -41 54 -41 7 0 19 -7 26 -15 7 -8 29 -15 49 -15 38 0 91 -19 91 -32 0 -5 9
-8 20 -8 19 0 20 -1 5 -24 -9 -13 -18 -36 -20 -52 -14 -83 -19 -94 -42 -110
-14 -9 -69 -58 -122 -109 -53 -51 -117 -110 -142 -131 -29 -24 -64 -71 -94
-124 -26 -47 -69 -116 -94 -155 -81 -122 -92 -169 -42 -186 23 -8 27 -15 23
-34 -7 -41 6 -71 44 -100 42 -32 101 -55 122 -48 7 3 24 31 38 61 29 66 42 61
50 -23 8 -83 7 -83 66 -110 61 -29 133 -33 159 -9 16 14 20 14 49 -3 78 -44
97 -52 129 -59 21 -4 42 -2 53 5 15 9 22 9 33 -3 8 -8 15 -19 15 -25 0 -6 14
-11 30 -11 17 0 30 5 30 11 0 6 8 8 18 5 12 -4 21 1 27 16 15 32 32 33 39 2 4
-15 11 -23 15 -18 9 10 28 96 36 165 3 25 15 70 26 99 14 38 18 64 13 95 -5
39 1 74 27 143 5 12 12 54 15 93 7 67 8 70 36 76 20 4 28 11 26 22 -4 18 -48
29 -48 12 0 -6 -5 -11 -11 -11 -6 0 -9 6 -6 12 2 7 0 21 -4 30 -7 12 -4 21 10
30 10 7 27 31 39 54 24 46 47 69 62 59 5 -3 10 -1 10 4 0 6 13 11 29 11 32 0
50 15 29 23 -10 4 -10 6 0 6 7 1 11 5 8 10 -3 5 1 14 9 21 13 11 14 10 9 -4
-3 -9 -1 -16 5 -16 6 0 11 7 11 15 0 8 9 29 20 47 20 33 29 67 10 38 -6 -10
-10 -11 -10 -2 0 7 -14 12 -35 12 -44 0 -45 -15 -2 -29 25 -9 29 -14 17 -21
-17 -11 -37 -13 -27 -3 4 3 -2 12 -13 20 -25 18 -26 43 -2 43 10 0 23 5 30 12
8 8 15 8 27 -2 11 -9 15 -9 15 -1 0 7 4 10 9 6 6 -3 15 4 21 16 13 23 -3 77
-27 92 -19 12 -16 27 6 27 11 0 21 -8 24 -17 2 -10 4 29 4 87 1 58 -1 112 -3
120 -2 10 -17 15 -41 16 -21 1 -31 -1 -22 -3 20 -5 40 -78 25 -93 -8 -8 -7
-11 4 -8 8 2 19 8 23 13 4 6 6 -1 5 -15 -2 -16 -9 -24 -18 -21 -50 14 -70 13
-70 -3 0 -9 -7 -16 -15 -16 -8 0 -15 -4 -15 -9 0 -5 -9 -12 -19 -16 -27 -8
-15 -35 14 -35 13 0 27 5 30 10 3 6 11 10 16 10 5 0 1 -10 -11 -22 -24 -26
-26 -38 -5 -38 9 0 15 -9 15 -22 -1 -22 -1 -23 -15 -4 -8 11 -15 15 -15 10 0
-5 -9 -10 -21 -11 -14 -1 -19 3 -15 13 3 8 1 14 -4 14 -6 0 -18 8 -28 17 -9
10 -33 30 -52 46 -19 15 -27 25 -18 21 9 -3 25 -1 35 5 15 9 12 10 -17 11 -27
0 -117 24 -138 36 -2 1 13 23 33 49 20 26 42 60 50 75 8 15 23 30 34 33 11 2
31 28 47 58 15 30 29 48 31 42 3 -7 11 -13 19 -13 9 0 12 -4 9 -10 -3 -5 -1
-10 4 -10 30 0 59 -20 75 -52 7 -14 19 -22 30 -20 12 2 16 -1 10 -9 -5 -8 -3
-10 6 -4 7 4 16 2 21 -6 6 -11 9 -8 9 8 0 13 -12 30 -30 43 -28 20 -30 26 -30
82 0 75 -22 110 -85 134 -56 21 -67 14 -23 -16 62 -43 73 -77 21 -64 -21 6
-25 4 -21 -8 4 -8 2 -21 -3 -29 -6 -9 -9 0 -9 29 0 50 -23 95 -57 113 -27 14
-29 33 -9 72 14 26 14 27 -12 28 -15 1 -40 2 -57 4 -16 1 -33 -3 -38 -9 -5 -8
-10 -6 -17 4 -24 38 -28 42 -40 35 -7 -4 -8 -10 -3 -14 5 -3 16 -27 25 -53 13
-41 13 -48 1 -53 -24 -9 -63 -6 -63 5 0 6 5 10 10 10 6 0 10 5 10 11 0 5 -5 7
-10 4 -5 -3 -10 1 -10 9 0 27 -58 59 -95 53 -30 -5 -35 -2 -45 24 -7 16 -25
40 -41 53 -26 22 -27 25 -11 39 23 21 72 39 89 33 7 -3 13 -1 13 4 0 6 26 23
58 38 60 28 76 42 64 54 -15 15 -182 -38 -197 -62 -10 -16 -23 -12 -30 10 -4
12 -25 39 -48 60 -22 22 -37 40 -32 40 4 0 -17 18 -48 40 -36 26 -74 44 -108
50 -40 8 -63 20 -99 54 -26 25 -66 50 -89 57 -22 7 -41 15 -41 19 0 12 80 24
167 25 45 0 85 4 89 8 4 4 -2 17 -14 30 -31 33 -27 45 14 53 19 4 38 12 41 20
6 17 -29 111 -73 194 -19 35 -34 72 -34 81 0 18 -39 60 -136 149 -33 30 -79
79 -103 107 l-43 53 18 40 c10 22 21 40 26 40 4 0 17 9 27 19 17 17 18 24 8
57 -6 21 -35 63 -64 94 -48 53 -50 57 -32 68 29 18 36 15 77 -29 50 -56 61
-77 62 -121 0 -23 5 -38 12 -38 6 0 4 -6 -7 -13 -12 -10 -14 -16 -7 -21 7 -4
16 -5 21 -2 5 3 11 -3 14 -14 3 -12 -1 -24 -11 -29 -15 -8 -13 -11 9 -20 15
-5 36 -7 48 -4 13 3 34 -3 54 -17 30 -21 33 -27 32 -67 -2 -33 2 -46 16 -53
22 -12 39 -64 35 -107 -2 -29 1 -33 24 -33 15 0 31 -9 38 -21 9 -15 20 -19 35
-15 11 3 36 -2 54 -11 18 -8 43 -13 57 -9 15 4 28 0 37 -10 9 -11 23 -14 48
-10 19 3 40 1 45 -3 11 -9 57 -14 103 -12 12 1 29 9 39 18 16 16 38 31 71 49
16 8 93 -26 93 -42 0 -16 69 -87 89 -92 33 -6 74 -3 84 7 15 15 27 14 27 -3 0
-8 4 -18 10 -21 7 -4 10 221 10 661 l0 666 -28 -5 -27 -6 28 12 29 12 -49 11
c-41 10 -45 13 -25 19 24 8 29 21 10 27 -7 3 -6 7 5 11 13 5 17 1 17 -14 0
-15 5 -19 16 -15 9 3 18 6 20 6 2 0 4 189 4 421 l-1 420 -21 -3 c-17 -2 -25
-15 -35 -48 l-13 -45 5 47 4 47 -883 1 c-847 0 -883 -1 -892 -18 -7 -14 -15
-17 -34 -11 -23 6 -23 7 -3 8 12 1 25 6 28 11 4 7 -387 10 -1169 10 l-1176 0
2 -2898z m448 2868 c0 -5 -4 -10 -10 -10 -5 0 -10 5 -10 10 0 6 5 10 10 10 6
0 10 -4 10 -10z m2205 -10 c-10 -11 -21 -18 -23 -15 -3 3 3 12 14 20 27 20 30
18 9 -5z m1292 -2 c-3 -8 -6 -5 -6 6 -1 11 2 17 5 13 3 -3 4 -12 1 -19z
m-3587 8 c0 -11 -19 -15 -25 -6 -3 5 1 10 9 10 9 0 16 -2 16 -4z m46 -23 c-7
-7 -26 7 -26 19 0 6 6 6 15 -2 9 -7 13 -15 11 -17z m1889 17 c3 -5 1 -10 -4
-10 -6 0 -11 5 -11 10 0 6 2 10 4 10 3 0 8 -4 11 -10z m-2005 -10 c0 -5 -4
-10 -9 -10 -6 0 -13 5 -16 10 -3 6 1 10 9 10 9 0 16 -4 16 -10z m2797 -12 c-3
-8 -6 -5 -6 6 -1 11 2 17 5 13 3 -3 4 -12 1 -19z m363 7 c0 -9 -6 -12 -16 -8
-13 5 -13 7 -2 14 17 11 18 11 18 -6z m-3300 -5 c0 -5 -7 -10 -16 -10 -8 0
-12 5 -9 10 3 6 10 10 16 10 5 0 9 -4 9 -10z m2587 -12 c-3 -8 -6 -5 -6 6 -1
11 2 17 5 13 3 -3 4 -12 1 -19z m-2547 -8 c0 -5 -7 -10 -15 -10 -8 0 -15 5
-15 10 0 6 7 10 15 10 8 0 15 -4 15 -10z m2090 0 c0 -5 -8 -10 -17 -10 -15 0
-16 2 -3 10 19 12 20 12 20 0z m413 -10 c-3 -12 -8 -19 -11 -16 -5 6 5 36 12
36 2 0 2 -9 -1 -20z m-874 1 c9 -6 10 -11 2 -15 -6 -4 -11 -2 -11 4 0 6 -4 8
-10 5 -5 -3 -10 -1 -10 4 0 13 10 14 29 2z m2003 -23 c-8 -8 -9 -4 -5 13 4 13
8 18 11 10 2 -7 -1 -18 -6 -23z m-1577 -18 c1 -16 -2 -27 -7 -24 -4 3 -8 15
-9 27 0 13 -3 16 -6 8 -3 -7 -14 -22 -24 -32 -10 -10 -15 -26 -12 -38 6 -22
23 -19 23 5 0 8 5 14 10 14 6 0 10 -9 10 -20 0 -11 -4 -20 -8 -20 -5 0 -16
-17 -26 -37 -10 -21 -26 -43 -36 -50 -11 -8 -17 -20 -14 -28 4 -9 0 -16 -7
-16 -8 -1 -21 -2 -29 -3 -8 0 -15 -10 -15 -21 0 -26 -13 -45 -31 -45 -12 0
-12 4 -4 20 13 25 3 26 -24 3 -20 -18 -20 -18 1 12 11 17 18 37 16 45 -4 12
-3 13 5 1 8 -11 12 -10 22 8 9 18 9 22 -3 19 -15 -3 -87 56 -87 72 0 14 6 13
46 -6 33 -16 49 -42 19 -30 -8 3 -15 1 -15 -4 0 -14 15 -19 39 -13 16 4 20 11
16 24 -4 13 -1 19 8 19 8 0 18 7 21 16 4 10 12 14 23 10 9 -4 20 -1 25 6 12
20 10 26 -8 24 -9 0 -19 6 -21 14 -4 13 -3 13 6 0 9 -13 11 -12 16 1 3 9 5 20
4 25 -4 23 2 36 16 30 8 -3 15 -1 15 4 0 8 31 19 39 13 2 -1 5 -16 6 -33z
m1802 26 c-5 -16 -24 -18 -30 -4 -3 9 3 14 14 14 11 0 18 -5 16 -10z m-421
-24 c5 3 15 0 21 -8 8 -8 9 -15 3 -19 -6 -3 -10 -1 -10 5 0 6 -4 9 -9 5 -11
-6 -41 21 -41 38 0 6 6 3 13 -8 8 -10 18 -16 23 -13z m-1070 -20 c-10 -11 -16
-12 -16 -4 0 7 5 12 10 12 6 0 10 8 11 18 0 11 2 13 6 4 3 -8 -2 -21 -11 -30z
m-1391 18 c3 -5 -1 -10 -9 -10 -9 0 -16 5 -16 10 0 6 4 10 9 10 6 0 13 -4 16
-10z m2680 -28 c-8 -8 -25 10 -19 20 4 6 9 5 15 -3 4 -7 6 -15 4 -17z m-3170
8 c3 -5 -1 -10 -9 -10 -9 0 -16 5 -16 10 0 6 4 10 9 10 6 0 13 -4 16 -10z
m535 6 c0 -3 -4 -8 -10 -11 -5 -3 -10 -1 -10 4 0 6 5 11 10 11 6 0 10 -2 10
-4z m1256 -61 c-1 -47 -6 -70 -19 -82 -16 -16 -17 -16 -17 -1 0 31 -17 27 -44
-10 -28 -39 -37 -37 -10 3 12 19 13 28 4 42 -10 16 -11 16 -6 1 3 -10 1 -18
-4 -18 -5 0 -12 -9 -15 -20 -4 -11 -11 -18 -16 -15 -12 8 -12 62 0 69 5 3 7
15 4 25 -3 13 2 23 17 31 20 11 21 10 10 -9 -6 -12 -7 -21 -2 -21 22 0 72 33
77 50 13 39 22 19 21 -45z m1470 30 c0 -19 -3 -35 -8 -35 -10 0 -11 54 -1 63
3 4 7 7 7 7 1 0 1 -16 2 -35z m68 -9 c8 -29 4 -27 -21 10 -19 29 -19 32 -3 22
10 -7 21 -21 24 -32z m-3320 -1 c-4 -8 -10 -12 -15 -9 -11 6 -2 24 11 24 5 0
7 -7 4 -15z m1584 -5 c7 -12 17 -18 22 -15 6 3 10 2 10 -4 0 -23 -20 -19 -40
9 -12 16 -18 30 -13 30 4 0 14 -9 21 -20z m294 -15 c9 -41 5 -41 -14 0 -9 21
-11 33 -4 32 6 -1 14 -15 18 -32z m-962 -6 c0 -6 -4 -7 -10 -4 -5 3 -10 11
-10 16 0 6 5 7 10 4 6 -3 10 -11 10 -16z m-1052 2 c38 -2 24 -16 -17 -18 -27
-2 -41 2 -45 12 -4 11 1 14 17 11 12 -3 32 -5 45 -5z m1402 -6 c4 3 11 -2 14
-11 4 -12 2 -15 -9 -11 -8 4 -18 1 -21 -5 -5 -8 -10 -5 -14 8 -4 10 -2 22 4
26 6 4 13 3 14 -2 2 -6 7 -8 12 -5z m594 -55 c1 -22 8 -46 14 -52 17 -17 15
-29 -3 -22 -8 4 -15 2 -15 -4 0 -5 8 -13 17 -16 14 -6 15 -9 4 -15 -10 -7 -10
-10 -1 -16 13 -8 32 14 23 28 -3 5 4 3 15 -4 19 -12 19 -13 -7 -35 -20 -17
-29 -20 -40 -11 -12 10 -14 9 -8 -5 3 -10 2 -20 -3 -23 -6 -4 -10 12 -11 37
-3 104 -6 149 -11 154 -9 8 -38 -26 -38 -44 0 -13 2 -13 15 4 13 17 14 17 15
2 0 -9 -4 -19 -9 -22 -4 -3 -6 -18 -3 -32 3 -19 1 -25 -7 -20 -7 5 -14 -4 -18
-26 l-7 -33 -8 30 c-10 37 -2 79 14 69 8 -5 9 -1 5 10 -9 22 12 98 24 90 5 -3
9 2 9 11 0 36 32 -16 34 -55z m1058 45 c3 -13 1 -22 -3 -19 -9 5 -13 44 -5 44
2 0 6 -11 8 -25z m-2460 -7 c-7 -7 -12 -8 -12 -2 0 14 12 26 19 19 2 -3 -1
-11 -7 -17z m63 2 c18 -8 17 -9 -7 -9 -16 -1 -28 4 -28 9 0 12 8 12 35 0z m98
-7 c-7 -2 -19 -2 -25 0 -7 3 -2 5 12 5 14 0 19 -2 13 -5z m1617 -9 c0 -8 -5
-12 -10 -9 -6 4 -17 -10 -25 -29 -9 -20 -20 -36 -25 -36 -12 0 -2 28 24 63 22
30 36 35 36 11z m1205 5 c12 -18 -3 -22 -20 -5 -14 14 -14 16 -1 16 8 0 18 -5
21 -11z m-1845 -9 c12 -7 10 -9 -8 -7 -12 0 -22 5 -22 9 0 11 12 10 30 -2z
m755 0 c3 -5 1 -10 -4 -10 -6 0 -11 5 -11 10 0 6 2 10 4 10 3 0 8 -4 11 -10z
m-1151 -9 c6 -10 -22 -37 -29 -29 -8 7 5 38 15 38 5 0 11 -4 14 -9z m-1384
-11 c0 -5 -7 -10 -15 -10 -9 0 -18 -7 -21 -15 -4 -8 -10 -12 -15 -9 -15 9 -10
19 14 30 29 15 37 16 37 4z m915 -10 c-3 -5 -12 -10 -18 -10 -7 0 -6 4 3 10
19 12 23 12 15 0z m842 -5 c0 -8 -4 -15 -9 -15 -10 0 -11 14 -1 23 9 10 10 9
10 -8z m-2121 -11 c-3 -9 -6 -18 -6 -20 0 -2 -7 -4 -15 -4 -18 0 -19 12 -3 28
17 17 31 15 24 -4z m174 -14 c-8 -15 -8 -20 3 -20 7 0 19 6 26 13 10 10 11 9
6 -5 -4 -11 -2 -18 4 -18 6 0 11 6 11 13 0 6 5 4 11 -6 6 -10 8 -21 5 -24 -3
-4 -6 -1 -6 6 0 8 -5 9 -17 3 -22 -12 -63 2 -63 21 0 12 19 37 27 37 2 0 -1
-9 -7 -20z m220 5 c0 -8 0 -18 0 -22 0 -20 -24 -5 -25 15 -1 12 4 22 12 22 7
0 13 -7 13 -15z m1488 -30 c-3 -3 -13 7 -23 22 l-17 28 23 -22 c12 -12 20 -25
17 -28z m2108 9 c-9 -6 -16 -19 -16 -28 0 -9 -4 -16 -10 -16 -5 0 -10 7 -10
15 0 8 -5 15 -11 15 -5 0 -7 5 -4 10 3 6 15 10 25 10 14 0 18 5 13 18 -6 15
-5 15 11 3 16 -14 16 -16 2 -27z m-2236 -3 c14 -27 13 -29 -15 -23 -16 3 -25
11 -25 23 0 25 26 24 40 0z m530 6 c0 -7 -9 -18 -20 -25 -11 -7 -20 -19 -20
-27 0 -8 -5 -15 -11 -15 -5 0 0 18 12 40 23 40 39 51 39 27z m-174 -12 c9 -8
13 -19 10 -24 -3 -5 8 -14 24 -20 32 -11 37 -20 19 -38 -6 -6 -12 -19 -13 -29
-2 -11 -11 -21 -21 -22 -11 -3 -15 0 -11 7 4 6 1 11 -8 11 -8 0 -16 3 -19 8
-2 4 -2 1 -1 -5 2 -7 -5 -13 -16 -13 -14 0 -20 7 -20 21 0 18 5 21 32 17 38
-6 71 17 47 33 -8 5 -20 9 -26 9 -7 0 -13 6 -14 13 0 6 -2 20 -4 30 -4 21 2
22 21 2z m370 -22 c-10 -10 -19 5 -10 18 6 11 8 11 12 0 2 -7 1 -15 -2 -18z
m-1671 7 c3 -5 1 -10 -4 -10 -6 0 -11 5 -11 10 0 6 2 10 4 10 3 0 8 -4 11 -10z
m985 0 c0 -5 -5 -10 -11 -10 -5 0 -7 5 -4 10 3 6 8 10 11 10 2 0 4 -4 4 -10z
m-1721 -12 c11 -11 12 -10 6 2 -6 10 -5 12 3 5 18 -17 26 -65 11 -66 -8 0 -5
-4 6 -9 19 -7 18 -9 -8 -19 -34 -13 -58 5 -61 44 -1 18 -5 24 -16 20 -9 -4 -8
1 5 14 24 23 36 25 54 9z m3925 -4 c3 -8 2 -12 -4 -9 -6 3 -10 10 -10 16 0 14
7 11 14 -7z m-3631 -1 c-7 -2 -13 -11 -13 -19 0 -8 -5 -14 -12 -14 -6 0 -8 3
-5 7 4 3 2 12 -4 20 -9 10 -6 13 17 12 16 0 23 -3 17 -6z m1387 -5 c10 3 12 1
5 -6 -5 -6 -23 -12 -40 -14 -21 -2 -30 -8 -29 -20 1 -11 -5 -18 -17 -18 -27 0
-23 21 8 46 18 14 33 19 43 14 8 -4 22 -5 30 -2z m117 -35 c-3 -2 -14 0 -24 6
-10 6 -13 11 -6 11 7 0 10 7 6 18 -3 11 1 9 12 -6 9 -13 15 -26 12 -29z m-919
-10 c6 -9 12 -31 12 -48 0 -25 -7 -34 -35 -49 -27 -15 -32 -22 -24 -33 9 -10
8 -13 -5 -13 -9 0 -16 6 -16 14 0 17 -30 30 -30 13 0 -7 -9 -1 -20 13 l-20 25
0 -22 c0 -14 6 -23 15 -23 8 0 15 -8 15 -18 0 -24 -59 -44 -86 -29 -15 7 -14
5 4 -12 12 -12 22 -26 22 -31 0 -12 -20 -23 -28 -15 -3 3 0 10 8 15 12 8 11
10 -6 10 -12 0 -27 -7 -34 -15 -11 -13 -10 -14 4 -9 9 3 16 2 16 -4 0 -17 -51
-27 -141 -27 -77 0 -91 -3 -149 -33 -42 -22 -80 -35 -112 -36 -26 -1 -51 -5
-54 -9 -11 -10 117 1 171 16 46 12 52 11 69 -5 18 -16 18 -17 -5 -22 -34 -7
-101 -16 -123 -17 -10 0 -33 -11 -50 -23 -33 -25 -151 -51 -180 -40 -9 3 -16
1 -16 -4 0 -12 -48 -38 -88 -47 -30 -6 -45 4 -67 47 -12 24 -30 21 -29 -5 1
-16 0 -16 -19 0 -19 17 -20 17 -14 0 4 -10 3 -16 -1 -14 -4 2 -16 7 -26 11
-19 6 -19 7 3 22 12 9 21 23 20 32 -3 39 0 42 51 41 28 -1 56 3 62 9 7 7 18
12 25 12 7 0 36 11 65 23 29 13 68 30 87 37 19 8 29 16 23 18 -23 7 -12 30 17
37 16 3 35 13 42 21 6 8 29 17 50 20 22 4 39 12 39 19 0 7 15 15 34 18 18 3
54 21 79 40 25 19 67 45 93 57 27 13 52 28 57 34 5 8 9 7 15 -1 11 -17 86 -10
114 11 31 22 147 15 166 -11z m1068 -19 c10 -24 21 -34 37 -34 20 -1 21 -2 5
-14 -10 -7 -15 -16 -11 -19 3 -4 3 -7 0 -7 -4 0 -14 14 -22 30 -9 17 -21 28
-27 24 -5 -4 -14 0 -19 7 -8 11 -12 10 -24 -5 -8 -11 -18 -16 -22 -12 -4 4 3
16 17 26 14 11 19 20 13 20 -7 0 -13 5 -13 11 0 6 7 9 15 5 8 -3 15 -1 15 5 0
19 22 -3 36 -37z m24 36 c0 -5 -5 -10 -11 -10 -5 0 -7 5 -4 10 3 6 8 10 11 10
2 0 4 -4 4 -10z m1917 -12 c-3 -8 -6 -5 -6 6 -1 11 2 17 5 13 3 -3 4 -12 1
-19z m-3973 -3 c-18 -15 -18 -15 9 -9 29 7 36 -7 17 -36 -8 -12 -10 -12 -15 2
-7 19 -57 17 -81 -3 -11 -9 -14 -9 -14 0 0 6 8 15 17 18 9 4 25 15 35 25 10
10 26 18 35 18 15 0 14 -2 -3 -15z m433 9 c-3 -3 -12 -4 -19 -1 -8 3 -5 6 6 6
11 1 17 -2 13 -5z m1347 -9 c-7 -16 -24 -21 -24 -6 0 8 7 13 27 20 1 1 0 -6
-3 -14z m1657 -35 c5 0 9 -7 9 -15 0 -12 -4 -13 -18 -4 -13 8 -17 19 -13 38 5
25 6 25 9 4 2 -13 8 -23 13 -23z m-1511 16 c0 -8 -4 -18 -10 -21 -5 -3 -10 3
-10 14 0 12 5 21 10 21 6 0 10 -6 10 -14z m384 -14 c-6 -4 -16 -16 -22 -27 -7
-13 -12 -15 -12 -6 0 17 31 54 39 46 3 -4 1 -9 -5 -13z m84 4 c3 -3 -2 -7 -11
-7 -9 -1 -24 -2 -34 -3 -9 0 -18 4 -20 11 -3 8 6 11 27 8 18 -2 35 -6 38 -9z
m-588 -5 c0 -5 -7 -12 -16 -15 -14 -5 -15 -4 -4 9 14 17 20 19 20 6z m60 -25
c0 -11 -19 -15 -25 -6 -3 5 1 10 9 10 9 0 16 -2 16 -4z m122 -38 c-6 -6 -7 0
-4 19 5 21 7 23 10 9 2 -10 0 -22 -6 -28z m-212 1 c0 -11 -4 -17 -10 -14 -5 3
-10 13 -10 21 0 8 5 14 10 14 6 0 10 -9 10 -21z m140 11 c0 -5 -5 -10 -11 -10
-5 0 -7 5 -4 10 3 6 8 10 11 10 2 0 4 -4 4 -10z m-2003 -39 c0 -11 -5 -18 -9
-15 -4 3 -5 11 -1 19 7 21 12 19 10 -4z m2020 -3 c-3 -8 -6 -5 -6 6 -1 11 2
17 5 13 3 -3 4 -12 1 -19z m-22 2 c8 -13 -5 -13 -25 0 -13 8 -13 10 2 10 9 0
20 -4 23 -10z m-1849 -15 c-10 -8 -23 -12 -28 -9 -14 9 2 24 25 24 21 -1 21
-1 3 -15z m3911 -15 c-2 -24 -10 -25 -28 -3 -12 15 -12 16 4 10 9 -3 17 -2 17
3 0 6 2 10 4 10 3 0 4 -9 3 -20z m-2984 -26 c2 -13 0 -24 -6 -24 -25 0 -77 25
-77 38 0 7 4 10 10 7 5 -3 17 -2 27 3 23 14 40 5 46 -24z m644 20 c-3 -3 -12
-4 -19 -1 -8 3 -5 6 6 6 11 1 17 -2 13 -5z m271 -8 c22 -12 22 -13 6 -27 -16
-13 -17 -12 -11 5 5 13 3 17 -7 13 -8 -3 -17 1 -20 9 -7 17 2 17 32 0z m212
-20 c0 -20 -17 -29 -26 -15 -5 8 -3 9 6 4 10 -6 12 -4 7 8 -3 10 -2 17 3 17 6
0 10 -6 10 -14z m814 -1 c-4 -8 -8 -15 -10 -15 -2 0 -4 7 -4 15 0 8 4 15 10
15 5 0 7 -7 4 -15z m66 11 c0 -3 -4 -8 -10 -11 -5 -3 -10 -1 -10 4 0 6 5 11
10 11 6 0 10 -2 10 -4z m150 -36 c0 -5 -4 -10 -10 -10 -5 0 -10 5 -10 10 0 6
5 10 10 10 6 0 10 -4 10 -10z m302 -12 c-7 -7 -12 -8 -12 -2 0 14 12 26 19 19
2 -3 -1 -11 -7 -17z m-1502 -25 c0 -2 -4 -2 -9 2 -6 3 -14 -3 -20 -12 -6 -10
-11 -13 -11 -8 -1 6 -3 20 -6 33 -4 22 -3 22 21 6 14 -9 25 -18 25 -21z m1010
33 c0 -3 -4 -8 -10 -11 -5 -3 -10 -1 -10 4 0 6 5 11 10 11 6 0 10 -2 10 -4z
m-980 -35 c0 -9 -16 -29 -35 -44 -41 -32 -47 -20 -9 18 14 14 23 32 20 40 -3
9 0 12 10 8 7 -3 14 -13 14 -22z m-90 9 c0 -5 -2 -10 -4 -10 -3 0 -8 5 -11 10
-3 6 -1 10 4 10 6 0 11 -4 11 -10z m-1905 -10 c3 -5 1 -10 -4 -10 -6 0 -11 5
-11 10 0 6 2 10 4 10 3 0 8 -4 11 -10z m2102 -12 c-3 -8 -6 -5 -6 6 -1 11 2
17 5 13 3 -3 4 -12 1 -19z m1169 -5 c-10 -10 -19 5 -10 18 6 11 8 11 12 0 2
-7 1 -15 -2 -18z m-3101 7 c-3 -5 -10 -10 -16 -10 -5 0 -9 5 -9 10 0 6 7 10
16 10 8 0 12 -4 9 -10z m3295 6 c0 -3 -4 -8 -10 -11 -5 -3 -10 -1 -10 4 0 6 5
11 10 11 6 0 10 -2 10 -4z m-1433 -28 c-3 -8 -6 -5 -6 6 -1 11 2 17 5 13 3 -3
4 -12 1 -19z m35 -43 c-5 -38 -22 -59 -22 -26 0 12 -5 21 -12 21 -6 0 -3 9 7
20 26 28 32 25 27 -15z m-952 -44 c0 -9 -56 -35 -75 -36 -5 0 -20 -6 -32 -13
-13 -7 -23 -9 -23 -4 0 16 31 37 74 49 53 14 56 15 56 4z m2812 -5 c-18 -6
-30 -15 -25 -20 4 -5 -7 -5 -24 -1 -24 5 -33 3 -33 -7 0 -10 -2 -10 -9 1 -7
11 -18 11 -62 1 -30 -7 -62 -17 -71 -22 -13 -6 -18 -5 -18 6 0 21 39 40 77 38
17 -2 34 1 36 5 3 5 40 8 84 9 70 1 75 0 45 -10z m-2013 -58 c-13 -18 -26 -35
-30 -38 -3 -3 -9 -12 -12 -20 -5 -13 -6 -13 -6 0 -1 14 54 90 65 90 3 0 -5
-15 -17 -32z m1658 7 c16 -11 28 -13 48 -5 34 13 48 13 43 -1 -2 -6 -7 -10
-12 -9 -4 1 -21 -11 -37 -26 -16 -15 -29 -24 -30 -18 0 5 -4 -1 -9 -14 l-10
-23 -37 24 c-28 18 -44 22 -61 16 -24 -9 -72 3 -55 14 6 4 40 10 75 13 34 4
70 11 78 16 13 8 13 8 0 7 -32 -3 -51 1 -45 11 9 14 27 12 52 -5z m180 -11
c-3 -3 -12 -4 -19 -1 -8 3 -5 6 6 6 11 1 17 -2 13 -5z m178 -24 c-3 -5 -12
-10 -18 -10 -7 0 -6 4 3 10 19 12 23 12 15 0z m-595 -25 c0 -8 -6 -15 -14 -15
-8 0 -13 -7 -12 -16 0 -9 -5 -19 -12 -21 -7 -3 -10 1 -6 10 4 11 -4 13 -38 10
-45 -5 -51 2 -8 9 14 1 39 11 55 20 17 9 31 17 33 17 1 1 2 -6 2 -14z m305 -2
c3 -10 1 -19 -4 -21 -6 -2 -11 -10 -11 -18 0 -8 -9 -14 -20 -14 -13 0 -18 5
-14 15 4 8 10 15 15 15 5 0 9 9 9 20 0 25 15 26 25 3z m378 0 c-7 -2 -19 -2
-25 0 -7 3 -2 5 12 5 14 0 19 -2 13 -5z m-603 -44 c0 -5 -10 -9 -21 -9 -18 0
-19 2 -9 15 12 15 30 12 30 -6z m-1520 1 c0 -5 -4 -10 -10 -10 -5 0 -10 5 -10
10 0 6 5 10 10 10 6 0 10 -4 10 -10z m1780 6 c0 -2 -9 -6 -20 -9 -11 -3 -18
-1 -14 4 5 9 34 13 34 5z m185 -6 c-3 -5 -12 -10 -18 -10 -7 0 -6 4 3 10 19
12 23 12 15 0z m-320 -29 c-8 -14 -25 -14 -25 0 0 5 5 7 10 4 6 -3 10 -1 10 6
0 7 3 10 6 6 3 -3 3 -10 -1 -16z m-1975 1 c8 -4 16 -17 17 -30 2 -15 -1 -21
-9 -16 -21 13 -67 12 -72 -2 -3 -8 -15 -11 -30 -8 -20 3 -23 1 -19 -16 4 -14
0 -20 -11 -20 -9 0 -16 -6 -16 -12 0 -9 -16 -13 -44 -14 -41 0 -44 1 -35 18 6
10 24 21 40 25 27 5 30 9 24 31 -5 22 -4 24 9 13 12 -11 20 -8 43 13 27 26 70
33 103 18z m1833 -8 c-5 -14 -3 -15 15 -5 12 6 34 8 48 5 l27 -7 -27 -14 c-37
-20 -29 -24 23 -12 24 5 46 7 49 4 3 -2 -9 -8 -26 -11 -33 -7 -42 -19 -20 -26
9 -3 8 -9 -5 -22 -16 -17 -17 -16 -17 4 0 16 -4 20 -15 16 -8 -3 -15 -1 -15 4
0 6 -9 6 -24 0 -14 -5 -27 -5 -33 1 -12 12 -89 1 -106 -15 -7 -6 -45 -10 -92
-10 -44 1 -88 -2 -97 -7 -19 -10 -51 -1 -42 12 3 5 9 7 14 4 15 -9 204 25 212
38 6 9 10 8 18 -3 8 -12 13 -13 30 -2 11 6 33 12 50 12 34 0 37 6 13 32 -15
17 -15 18 5 18 16 0 20 -4 15 -16z m374 10 c-3 -3 -12 -4 -19 -1 -8 3 -5 6 6
6 11 1 17 -2 13 -5z m-167 -15 c0 -5 -4 -7 -10 -4 -5 3 -10 1 -10 -4 0 -6 -10
-10 -22 -10 -17 1 -19 2 -5 6 9 2 17 9 17 14 0 5 7 9 15 9 8 0 15 -5 15 -11z
m-1950 -59 c0 -5 -4 -10 -10 -10 -5 0 -10 5 -10 10 0 6 5 10 10 10 6 0 10 -4
10 -10z m193 -14 c4 -9 -3 -13 -24 -12 -16 1 -29 4 -29 7 0 21 45 26 53 5z
m-523 -30 c0 -2 3 -11 6 -19 3 -10 -4 -18 -23 -24 -26 -10 -43 -31 -57 -76 -4
-13 -12 -17 -26 -12 -14 4 -20 2 -20 -9 0 -9 -6 -13 -14 -10 -22 8 -31 -17
-11 -32 16 -12 15 -14 -9 -20 -15 -3 -37 -2 -49 3 -21 10 -31 8 -112 -23 -11
-4 -23 -6 -27 -6 -5 1 -8 -5 -8 -13 0 -8 -5 -15 -10 -15 -6 0 -15 -12 -20 -26
-6 -14 -14 -22 -20 -19 -5 3 -10 1 -10 -5 0 -7 -7 -10 -15 -6 -8 3 -15 0 -15
-7 0 -8 -4 -6 -10 3 -5 8 -10 11 -10 6 0 -5 -9 -1 -20 9 -11 10 -23 15 -28 10
-4 -4 -1 -10 6 -12 6 -3 12 -11 12 -18 0 -18 30 -28 46 -15 7 6 18 10 26 9 20
-4 78 12 78 21 0 5 10 12 23 15 12 4 33 17 46 29 13 11 21 15 17 9 -5 -9 1
-13 17 -13 14 0 27 -7 31 -15 9 -24 69 -19 101 9 16 14 45 32 66 42 21 9 41
24 44 33 3 9 20 23 37 31 18 7 37 15 42 18 4 2 5 -6 1 -18 -6 -20 -5 -21 14
-10 l22 11 -22 18 c-22 18 -22 19 -3 28 10 6 42 13 70 16 42 5 55 2 68 -12 12
-13 13 -20 4 -29 -9 -9 -6 -12 13 -12 32 0 42 9 27 27 -16 19 -5 25 17 9 15
-11 17 -17 7 -28 -6 -8 -9 -17 -6 -21 8 -8 64 13 64 25 0 6 9 8 20 5 10 -3 27
1 37 9 10 7 31 14 47 14 23 0 27 -3 21 -17 -4 -10 -10 -28 -13 -41 -3 -17 -9
-21 -21 -16 -53 21 -64 -2 -16 -35 41 -28 43 -36 12 -75 -17 -21 -28 -27 -38
-20 -18 11 -59 13 -59 1 0 -4 -4 -5 -10 -2 -20 12 -10 35 15 35 20 0 23 4 17
19 -8 21 -29 24 -24 4 2 -8 -7 -13 -23 -13 -17 0 -25 -5 -25 -17 0 -23 -29
-53 -53 -53 -18 0 -17 2 4 19 23 18 23 20 5 27 -10 4 -27 2 -38 -5 -16 -10
-18 -10 -13 0 5 8 4 10 -3 5 -7 -4 -12 -2 -12 5 0 7 -10 9 -26 6 -18 -3 -33 2
-48 17 -11 11 -25 20 -30 18 -5 -2 -6 5 -2 14 5 14 1 15 -26 11 -18 -3 -54
-12 -81 -19 -43 -13 -46 -15 -34 -33 8 -10 19 -15 26 -10 10 5 9 2 0 -13 -10
-16 -15 -18 -23 -8 -17 21 -46 27 -46 11 0 -8 -4 -15 -9 -15 -7 0 -11 -57 -11
-155 0 -48 -9 -75 -26 -75 -8 0 -13 -4 -9 -10 3 -5 13 -6 22 -3 11 5 14 3 9
-6 -5 -7 -17 -11 -27 -8 -18 5 -24 -7 -20 -38 1 -5 -6 0 -16 12 -11 14 -33 24
-58 27 -22 2 -51 8 -65 12 -23 7 -24 6 -10 -12 8 -10 25 -27 38 -37 18 -15 20
-22 11 -33 -7 -8 -20 -12 -30 -9 -26 9 -24 -9 6 -41 14 -15 25 -30 25 -34 0
-3 29 -12 65 -18 35 -7 79 -21 97 -31 18 -10 62 -26 98 -36 78 -22 76 -21 61
-38 -9 -12 -5 -16 20 -21 17 -3 44 -6 60 -6 15 0 30 -4 33 -9 7 -11 -17 -21
-51 -21 -38 0 -133 -30 -172 -53 -19 -12 -53 -30 -75 -41 -34 -17 -48 -36 -84
-103 -34 -65 -40 -83 -28 -83 9 0 21 12 26 26 22 57 79 84 126 59 16 -8 36
-15 44 -15 13 0 13 -1 0 -10 -8 -6 -33 -7 -56 -4 -38 5 -43 3 -72 -32 -18 -21
-37 -54 -43 -74 -7 -19 -18 -44 -25 -55 -8 -11 -14 -31 -14 -46 0 -18 -8 -29
-27 -38 -15 -7 -33 -21 -41 -32 -8 -11 -20 -18 -28 -15 -8 3 -11 0 -7 -9 3 -8
-2 -18 -11 -21 -9 -3 -16 -14 -16 -23 0 -10 -8 -26 -18 -37 -13 -14 -19 -38
-21 -83 -2 -57 -6 -68 -32 -92 -16 -15 -37 -26 -47 -24 -9 1 -11 0 -4 -2 16
-6 15 -24 -1 -47 -12 -16 -14 -16 -27 8 -16 30 -27 34 -27 9 0 -10 10 -25 21
-35 17 -13 19 -19 9 -29 -10 -10 -13 -10 -13 -1 0 12 -49 36 -57 28 -7 -7 27
-69 54 -97 20 -22 23 -31 14 -47 -6 -11 -7 -23 -3 -27 4 -5 2 -5 -4 -2 -13 7
-93 -74 -120 -120 -20 -36 -34 -42 -35 -15 0 11 -2 12 -6 4 -3 -7 0 -19 6 -26
9 -11 8 -25 -5 -57 -23 -59 -30 -66 -54 -51 -17 10 -20 10 -20 -3 0 -8 8 -15
18 -15 16 0 17 -7 10 -78 -4 -47 -19 -109 -38 -157 -41 -108 -45 -113 -70 -98
-11 7 -24 13 -30 13 -11 0 -120 108 -136 136 -6 10 -16 20 -22 22 -21 7 79
-134 146 -205 18 -20 20 -28 11 -39 -9 -11 -7 -14 12 -14 l23 0 -20 -21 c-20
-19 -39 -27 -76 -28 -9 -1 -34 -16 -56 -34 -22 -17 -63 -50 -91 -72 -29 -22
-66 -52 -82 -67 -26 -22 -62 -36 -114 -43 -5 -1 -17 -5 -25 -8 -8 -3 -28 -7
-45 -9 -20 -2 -34 -11 -42 -28 -11 -21 -13 21 -13 241 0 193 3 268 12 277 9 9
9 12 0 12 -7 0 -12 10 -12 23 0 20 2 19 26 -10 21 -28 29 -31 45 -23 17 10 49
8 116 -6 27 -5 31 -35 8 -54 -8 -7 -15 -18 -15 -25 0 -7 -7 -16 -16 -19 -12
-5 -15 -14 -10 -37 l6 -31 -26 17 c-26 16 -26 16 -19 -7 4 -12 13 -31 20 -41
12 -17 14 -16 39 14 15 17 30 45 33 61 3 15 9 31 14 34 12 7 51 95 55 123 3
24 37 81 77 128 55 66 90 103 97 103 4 0 11 -16 15 -37 9 -50 68 -210 72 -197
3 9 -55 200 -74 244 -4 8 -7 36 -7 62 -1 40 2 48 19 50 11 2 19 9 17 16 -1 6
2 12 7 12 4 0 22 23 39 50 17 28 36 50 42 50 5 0 10 7 10 15 0 8 9 34 19 58
11 23 25 60 32 82 7 22 20 54 30 71 13 24 15 35 6 44 -8 8 -8 11 -1 7 10 -6
45 54 82 143 13 31 62 112 128 211 13 19 24 40 24 47 0 7 5 12 12 12 12 0 77
69 78 82 0 4 -11 10 -25 14 -23 6 -24 7 -8 30 21 33 12 38 -26 17 -18 -11 -29
-24 -26 -32 4 -10 -1 -12 -20 -7 -19 5 -27 2 -32 -10 -4 -10 -14 -25 -22 -35
-9 -9 -32 -39 -51 -67 -33 -47 -59 -66 -87 -63 -7 1 -9 -7 -6 -19 4 -15 2 -19
-10 -14 -22 8 -99 -36 -93 -53 3 -7 1 -13 -4 -13 -14 0 -12 -27 3 -34 6 -3 2
-3 -9 -1 -13 3 -28 -1 -37 -10 -17 -16 -32 -21 -23 -7 3 5 -6 15 -20 23 -19
10 -27 10 -32 2 -12 -20 -72 -12 -84 10 -5 11 -13 15 -17 10 -7 -11 -70 -23
-89 -16 -6 3 -9 10 -6 15 4 6 2 8 -4 4 -6 -3 -13 -2 -17 3 -3 6 -12 8 -19 5
-26 -10 -30 35 -6 61 29 31 20 52 -24 60 -49 10 -63 3 -42 -18 10 -9 13 -17 8
-17 -5 0 -15 7 -22 15 -9 11 -17 12 -30 5 -24 -13 -30 -13 -30 0 0 6 6 10 14
10 7 0 16 8 19 18 2 9 8 25 12 35 6 14 2 17 -21 17 -28 1 -29 1 -9 17 16 13
17 15 2 10 -10 -4 -17 -1 -18 6 0 9 -2 9 -6 0 -2 -7 -9 -13 -14 -13 -6 0 -7 4
-4 10 3 6 -1 7 -9 4 -9 -3 -15 -9 -14 -12 2 -20 -4 -28 -23 -29 -16 -2 -20 3
-17 25 2 21 14 32 52 50 27 13 55 21 62 18 7 -3 16 -1 19 4 9 14 43 12 48 -2
2 -7 2 -3 0 10 -2 13 4 30 12 39 23 22 4 39 -24 21 -18 -11 -23 -11 -30 0 -6
10 -14 10 -37 1 -16 -7 -33 -11 -38 -10 -5 1 -12 -3 -15 -8 -4 -6 -17 -8 -29
-4 -21 5 -22 10 -22 129 0 76 4 124 10 124 6 0 10 7 10 15 0 8 -4 15 -10 15
-5 0 -10 18 -10 40 0 35 3 40 23 39 25 0 69 -17 49 -18 -18 -1 -5 -21 14 -21
8 0 13 5 11 12 -1 7 5 12 13 13 9 0 14 8 12 20 -3 22 -9 56 -11 66 -2 13 -33
19 -49 9 -15 -8 -14 -9 5 -10 12 0 24 -4 28 -9 10 -17 -26 -41 -60 -41 l-34 0
0 115 c-1 95 2 115 14 115 8 0 15 5 15 11 0 5 5 7 11 3 7 -4 30 -8 53 -9 23
-1 49 -6 58 -10 24 -10 40 31 24 60 -6 11 -11 21 -12 22 0 2 -22 7 -47 12 -45
8 -47 8 -47 -15 0 -16 6 -24 18 -24 14 0 15 -2 2 -10 -9 -6 -18 -6 -24 0 -16
16 -33 11 -39 -10 -9 -36 -24 -21 -25 24 l-1 44 58 20 c49 17 60 18 76 6 10
-8 28 -11 38 -8 11 3 23 1 27 -6 5 -8 17 -1 36 24 17 21 38 36 50 36 12 0 28
9 35 20 13 20 15 20 39 3 24 -17 35 -20 96 -27 17 -2 36 -6 43 -10 6 -4 11 -3
11 1 0 17 -24 33 -48 33 -42 0 -14 17 40 24 29 4 69 11 88 16 19 5 60 13 90
20 30 6 73 19 95 29 48 22 138 51 159 51 8 0 16 6 19 13 3 9 7 9 18 1 10 -8
30 -9 68 -3 52 8 79 19 50 19 -8 1 -2 8 14 16 15 8 32 12 37 9 6 -3 15 -3 22
1 6 4 25 8 41 10 16 1 32 6 36 10 3 5 21 10 40 11 43 3 57 16 36 33 -27 23
-16 30 45 30 33 0 60 -2 60 -4z m420 -6 c0 -5 -6 -10 -14 -10 -8 0 -18 5 -21
10 -3 6 3 10 14 10 12 0 21 -4 21 -10z m62 -22 c-12 -12 -42 1 -42 18 0 11 5
11 25 2 14 -6 22 -15 17 -20z m-211 -4 c10 -13 10 -17 -2 -25 -17 -11 -62 -12
-56 -1 2 4 7 15 10 25 8 21 30 22 48 1z m1899 7 c-1 -16 -17 -27 -42 -26 -28
0 -39 20 -15 28 18 6 57 5 57 -2z m-2300 -11 c0 -5 -8 -10 -17 -10 -15 0 -16
2 -3 10 19 12 20 12 20 0z m1338 -10 c30 -5 74 -17 99 -25 59 -20 173 -75 173
-84 -1 -10 -26 -41 -34 -41 -4 0 -36 13 -71 30 -154 72 -300 89 -488 56 -143
-25 -209 -51 -261 -103 l-29 -28 8 35 c12 56 40 79 155 128 39 16 80 24 240
46 38 5 149 -2 208 -14z m-878 0 c0 -5 -5 -10 -11 -10 -5 0 -7 5 -4 10 3 6 8
10 11 10 2 0 4 -4 4 -10z m80 -10 c3 -1 13 -2 23 -1 9 1 17 -3 17 -8 0 -12
-23 -14 -57 -5 -27 7 -31 24 -5 19 9 -2 19 -4 22 -5z m-730 -19 c0 -5 -16 -12
-35 -15 -19 -4 -35 -11 -35 -16 0 -6 -11 -10 -25 -10 -31 0 -33 23 -2 38 27
13 97 15 97 3z m2451 -28 c13 -16 12 -17 -3 -4 -17 13 -22 21 -14 21 2 0 10
-8 17 -17z m84 -3 c3 -5 1 -10 -4 -10 -6 0 -11 5 -11 10 0 6 2 10 4 10 3 0 8
-4 11 -10z m-419 -51 c8 -14 -10 -11 -32 6 -18 13 -18 14 4 8 12 -3 25 -9 28
-14z m-551 -24 c83 -27 185 -78 189 -95 3 -8 8 -31 11 -50 l7 -35 -23 24 c-48
50 -204 105 -329 116 -108 9 -330 -24 -400 -60 -28 -14 -54 -24 -56 -22 -3 2
12 21 31 40 40 40 151 81 260 97 87 13 251 5 310 -15z m309 -30 c36 -55 1
-168 -47 -149 -24 9 -47 56 -47 96 0 70 61 104 94 53z m-1554 -55 c0 -5 -5
-10 -11 -10 -5 0 -7 5 -4 10 3 6 8 10 11 10 2 0 4 -4 4 -10z m1610 -43 c0 -5
-4 -5 -10 -2 -5 3 -10 14 -10 23 0 15 2 15 10 2 5 -8 10 -19 10 -23z m-1428
-19 c-9 -9 -12 -9 -12 1 0 9 -9 11 -27 7 -28 -5 -28 -5 2 9 33 15 58 4 37 -17z
m227 -2 c9 -11 7 -15 -9 -19 -15 -4 -20 0 -20 14 0 22 13 25 29 5z m-451 -24
c6 -18 -15 -14 -22 4 -4 10 -1 14 6 12 6 -2 14 -10 16 -16z m230 -9 c-5 -7
-14 -10 -19 -7 -16 10 -9 23 10 21 15 -1 17 -4 9 -14z m1020 -3 c46 -7 88 -38
65 -47 -7 -3 -13 -11 -13 -19 0 -10 -6 -11 -22 -5 -13 5 -22 16 -20 24 2 15
-17 31 -43 37 -20 5 -40 12 -60 21 -15 7 -11 8 15 3 19 -3 54 -10 78 -14z
m-630 -14 c3 -15 0 -17 -14 -11 -11 4 -25 8 -31 8 -10 0 -10 4 -1 14 15 19 42
12 46 -11z m-658 4 c0 -5 -5 -10 -11 -10 -5 0 -7 5 -4 10 3 6 8 10 11 10 2 0
4 -4 4 -10z m1913 -10 c4 -17 2 -18 -14 -9 -22 11 -25 29 -5 29 7 0 16 -9 19
-20z m-1860 4 c3 -3 3 -13 0 -21 -5 -12 -7 -12 -14 -1 -15 23 -4 40 14 22z
m41 -10 c3 -8 2 -12 -4 -9 -6 3 -10 10 -10 16 0 14 7 11 14 -7z m2296 6 c8 -5
11 -12 7 -16 -4 -4 -15 0 -24 9 -18 18 -8 23 17 7z m410 -24 c0 -3 -4 -8 -10
-11 -5 -3 -10 -1 -10 4 0 6 5 11 10 11 6 0 10 -2 10 -4z m-60 -32 c0 -2 -7 -4
-15 -4 -8 0 -15 4 -15 10 0 5 7 7 15 4 8 -4 15 -8 15 -10z m-634 -2 c6 -4 13
-14 16 -23 5 -13 1 -15 -20 -11 l-27 5 25 -21 c24 -21 24 -21 4 -22 -28 0 -46
21 -34 40 5 9 5 19 -2 27 -8 10 -6 13 8 13 11 0 24 -4 30 -8z m-51 -38 c1 -13
-4 -24 -11 -24 -16 0 -26 43 -11 52 15 9 22 1 22 -28z m140 26 c3 -5 1 -10 -4
-10 -6 0 -11 5 -11 10 0 6 2 10 4 10 3 0 8 -4 11 -10z m-2151 -16 c3 -8 2 -12
-4 -9 -6 3 -10 10 -10 16 0 14 7 11 14 -7z m486 0 c0 -12 6 -15 24 -10 23 6
45 -8 32 -21 -8 -8 -126 18 -126 28 0 4 12 10 28 12 15 2 30 5 35 6 4 0 7 -6
7 -15z m1285 7 c10 -17 -12 -21 -25 -6 -10 12 -10 15 3 15 9 0 18 -4 22 -9z
m165 -16 c0 -13 -29 -29 -37 -21 -3 2 0 14 7 25 11 22 30 20 30 -4z m-1560 -5
c0 -5 -7 -7 -15 -4 -8 4 -12 10 -9 15 6 11 24 2 24 -11z m-270 -20 c22 -4 34
-11 32 -20 -2 -7 3 -17 10 -21 7 -4 9 -11 5 -15 -4 -4 -14 2 -23 14 -18 26
-36 29 -27 5 3 -12 -1 -10 -12 5 -15 21 -18 22 -29 7 -11 -15 -13 -15 -25 -1
-7 9 -17 13 -22 10 -5 -3 -6 2 -3 10 6 16 33 26 49 17 5 -3 25 -8 45 -11z
m220 -20 c0 -5 -4 -10 -10 -10 -5 0 -10 5 -10 10 0 6 5 10 10 10 6 0 10 -4 10
-10z m1480 0 c0 -5 -4 -10 -9 -10 -6 0 -13 5 -16 10 -3 6 1 10 9 10 9 0 16 -4
16 -10z m765 1 c3 -5 1 -12 -5 -16 -5 -3 -10 1 -10 9 0 18 6 21 15 7z m-2610
-21 c3 -5 -1 -10 -10 -10 -9 0 -13 5 -10 10 3 6 8 10 10 10 2 0 7 -4 10 -10z
m2825 -20 c0 -5 -10 -10 -22 -9 -22 0 -22 1 -3 9 11 5 21 9 23 9 1 1 2 -3 2
-9z m-2751 -44 c9 -10 8 -15 -4 -20 -8 -3 -15 -1 -15 4 0 6 -5 9 -11 8 -6 -2
-14 3 -16 10 -6 17 32 16 46 -2z m1229 -13 c13 -25 21 -123 11 -123 -5 0 -9 5
-9 10 0 6 -10 8 -24 4 -25 -6 -70 11 -62 24 3 4 -12 6 -32 4 l-37 -4 55 50
c58 54 84 63 98 35z m556 11 c9 -3 14 -10 11 -15 -7 -10 -35 0 -35 12 0 11 3
11 24 3z m156 -10 c0 -8 -4 -12 -10 -9 -5 3 -10 10 -10 16 0 5 5 9 10 9 6 0
10 -7 10 -16z m-1395 -31 c-12 -66 -24 -67 -61 -6 -7 10 -15 15 -18 12 -11
-11 15 -102 40 -139 13 -19 28 -56 34 -83 9 -41 7 -53 -10 -87 -24 -48 -25
-60 -3 -99 14 -24 23 -29 40 -24 20 4 25 -1 38 -33 32 -81 62 -128 110 -171
75 -68 83 -70 147 -34 30 17 86 42 124 55 78 27 141 52 166 66 11 6 18 5 22
-6 3 -9 1 -12 -4 -9 -6 3 -10 2 -10 -3 0 -6 -46 -24 -102 -41 -110 -34 -196
-69 -205 -85 -3 -5 -1 -6 5 -2 7 4 20 9 29 11 10 2 39 10 66 18 26 8 47 11 47
6 0 -5 -7 -9 -15 -9 -45 0 -253 -90 -268 -116 -4 -8 -13 -14 -19 -14 -6 0 2
12 17 26 20 19 25 28 16 34 -10 5 -9 9 4 13 9 4 13 3 10 -3 -7 -12 -3 -12 20
-4 13 5 2 14 -40 31 -31 13 -59 23 -60 21 -2 -2 -5 -40 -7 -84 -2 -45 -6 -80
-10 -77 -5 2 -8 -3 -8 -11 0 -8 -8 -20 -17 -25 -10 -6 -14 -11 -9 -11 4 0 -10
-18 -33 -40 -22 -22 -41 -43 -41 -48 0 -15 -42 -43 -56 -38 -8 3 -14 9 -14 13
1 14 24 39 45 48 16 6 10 10 -30 17 -79 15 -100 48 -30 48 19 0 37 4 40 10 3
5 18 7 34 4 27 -6 28 -5 44 77 17 88 16 109 -4 65 -7 -14 -16 -26 -21 -26 -11
0 -11 -2 16 55 14 28 21 52 15 53 -5 2 -9 8 -9 13 0 11 -28 39 -60 60 -24 15
-102 128 -80 114 6 -4 22 -24 36 -46 13 -22 42 -52 64 -67 22 -15 42 -35 45
-44 4 -10 12 -18 20 -18 8 0 16 -9 20 -19 3 -11 12 -21 19 -24 10 -4 11 4 5
39 -10 53 -16 66 -87 173 -84 127 -104 195 -127 432 l-6 65 67 2 66 2 -7 -37z
m379 -39 c11 -4 37 -17 57 -30 20 -12 56 -28 80 -35 24 -6 53 -21 64 -33 15
-16 33 -22 70 -22 88 -2 185 -19 202 -36 20 -21 11 -45 -21 -58 -13 -5 -30
-17 -37 -28 -26 -36 -75 -50 -63 -18 2 6 -15 30 -38 53 -32 31 -58 45 -101 56
-55 13 -61 13 -124 -9 -37 -13 -69 -28 -73 -34 -4 -6 -20 -12 -35 -13 -25 -2
-30 3 -39 34 -6 21 -19 46 -28 56 -10 11 -18 22 -18 26 0 3 -13 28 -30 54 -44
70 -42 73 41 57 40 -7 81 -17 93 -20z m636 26 c0 -6 -7 -22 -16 -35 -18 -27
-44 -33 -44 -11 0 8 -3 22 -7 32 -5 13 -3 16 9 12 8 -4 21 -2 29 3 19 12 29
11 29 -1z m485 -10 c-3 -5 -25 -10 -48 -9 -36 1 -38 2 -17 9 36 12 72 12 65 0z
m95 -6 c0 -8 -5 -12 -10 -9 -6 4 -8 11 -5 16 9 14 15 11 15 -7z m153 -31 c9
-3 17 -12 17 -19 0 -12 -3 -12 -22 0 -13 8 -27 15 -33 15 -5 0 -11 5 -14 12
-2 8 2 10 15 4 11 -4 27 -10 37 -12z m97 -43 c0 -5 -2 -10 -4 -10 -3 0 -8 5
-11 10 -3 6 -1 10 4 10 6 0 11 -4 11 -10z m40 -54 c0 -3 -4 -8 -10 -11 -5 -3
-10 -1 -10 4 0 6 5 11 10 11 6 0 10 -2 10 -4z m-2039 -101 c9 -33 24 -77 33
-97 9 -21 16 -43 16 -50 -1 -16 -180 172 -180 189 0 15 25 22 75 20 l40 -2 16
-60z m749 15 c45 -11 77 -30 51 -30 -7 0 -18 -6 -26 -13 -17 -17 -85 -10 -85
9 0 17 -5 17 -29 4 -10 -5 -34 -7 -54 -3 -32 5 -34 7 -24 24 18 30 75 33 167
9z m-710 -46 c0 -8 -4 -12 -10 -9 -5 3 -10 10 -10 16 0 5 5 9 10 9 6 0 10 -7
10 -16z m794 -9 c-4 -8 -12 -15 -20 -15 -8 0 -14 7 -14 15 0 8 9 15 20 15 13
0 18 -5 14 -15z m254 -11 c3 -16 1 -16 -7 -4 -7 9 -11 10 -11 3 0 -6 4 -14 9
-17 14 -9 1 -45 -22 -61 -27 -19 -54 -20 -40 -2 11 13 24 57 17 57 -16 0 -59
-39 -89 -81 -20 -28 -45 -51 -60 -55 -14 -3 -25 -9 -25 -13 0 -4 -16 -15 -35
-24 -19 -9 -35 -15 -35 -13 0 2 38 34 85 71 47 37 85 71 85 75 0 22 94 94 115
87 6 -2 11 -12 13 -23z m-439 -54 c41 -28 69 -35 114 -32 21 2 23 -24 1 -32
-40 -15 -137 4 -198 40 -18 11 -18 12 0 32 25 27 32 27 83 -8z m786 -40 c-3
-5 -10 -10 -16 -10 -5 0 -9 5 -9 10 0 6 7 10 16 10 8 0 12 -4 9 -10z m-441
-15 c-4 -8 -10 -12 -15 -9 -5 3 -9 -1 -9 -9 0 -18 -38 -53 -85 -77 -40 -20
-63 -20 -25 0 12 6 46 34 76 61 58 52 67 58 58 34z m141 -75 c8 -13 -5 -13
-25 0 -13 8 -13 10 2 10 9 0 20 -4 23 -10z m103 5 c-10 -11 -48 -14 -48 -4 0
5 12 9 27 9 14 0 24 -2 21 -5z m-61 -11 c-3 -3 -12 -4 -19 -1 -8 3 -5 6 6 6
11 1 17 -2 13 -5z m-2007 -16 c0 -4 -9 -8 -21 -8 -11 0 -18 4 -15 8 3 5 12 9
21 9 8 0 15 -4 15 -9z m1860 2 c0 -5 -7 -10 -15 -10 -8 0 -15 -5 -15 -12 0 -6
-3 -8 -7 -4 -5 4 1 14 11 22 23 17 26 17 26 4z m-70 -40 c0 -5 -8 -10 -17 -10
-15 0 -16 2 -3 10 19 12 20 12 20 0z m516 2 c7 -4 14 -18 15 -32 4 -22 0 -25
-33 -28 -36 -3 -38 -2 -38 27 0 35 28 52 56 33z m-2402 -31 c3 -5 -1 -11 -9
-14 -9 -4 -12 -1 -8 9 6 16 10 17 17 5z m-854 -21 c-20 -13 -33 -13 -25 0 3 6
14 10 23 10 15 0 15 -2 2 -10z m2538 -4 c-7 -8 -15 -12 -17 -11 -5 6 10 25 20
25 5 0 4 -6 -3 -14z m-2518 -36 c0 -5 -5 -10 -11 -10 -5 0 -7 5 -4 10 3 6 8
10 11 10 2 0 4 -4 4 -10z m2450 6 c0 -2 -7 -6 -15 -10 -8 -3 -15 -1 -15 4 0 6
7 10 15 10 8 0 15 -2 15 -4z m-2461 -85 c20 -16 22 -20 10 -39 -7 -11 -21 -23
-31 -25 -15 -4 -18 1 -18 39 0 49 4 52 39 25z m1925 -56 c-4 -8 -11 -15 -16
-15 -6 0 -5 6 2 15 7 8 14 15 16 15 2 0 1 -7 -2 -15z m660 -1 c10 -4 16 -18
16 -35 0 -26 -3 -29 -35 -29 -30 0 -35 3 -35 23 0 22 16 47 31 47 4 0 14 -3
23 -6z m-2047 -50 c-3 -3 -12 -4 -19 -1 -8 3 -5 6 6 6 11 1 17 -2 13 -5z m48
-24 c-3 -5 -14 -10 -23 -9 -14 0 -13 2 3 9 27 11 27 11 20 0z m-88 -16 c-3 -3
-12 -4 -19 -1 -8 3 -5 6 6 6 11 1 17 -2 13 -5z m-484 -54 c10 -12 22 -18 27
-15 14 9 26 -32 25 -90 0 -49 0 -50 -30 -47 -16 1 -40 3 -52 3 -22 1 -23 5
-23 85 0 74 2 84 18 84 10 0 25 -9 35 -20z m1397 0 c0 -4 -14 -35 -32 -69 -28
-55 -34 -61 -45 -45 -7 9 -14 22 -16 28 -2 6 -7 8 -11 5 -3 -3 3 -18 14 -32
18 -23 19 -30 8 -71 -12 -44 -12 -44 -29 -25 -19 22 -59 140 -59 174 0 19 8
23 63 31 80 12 107 13 107 4z m-1120 -24 c0 -3 -4 -8 -10 -11 -5 -3 -10 -1
-10 4 0 6 5 11 10 11 6 0 10 -2 10 -4z m47 -58 c-3 -8 -6 -5 -6 6 -1 11 2 17
5 13 3 -3 4 -12 1 -19z m-167 -2 c0 -3 -4 -8 -10 -11 -5 -3 -10 -1 -10 4 0 6
5 11 10 11 6 0 10 -2 10 -4z m1690 -23 c0 -8 -131 -146 -144 -152 -9 -4 24 43
82 117 30 37 62 55 62 35z m-115 -13 c3 -5 1 -10 -6 -10 -7 0 -10 -3 -6 -6 3
-4 -6 -25 -22 -48 -16 -22 -31 -51 -35 -63 -7 -20 -34 -39 -44 -29 -8 9 8 37
18 31 5 -3 10 1 10 9 0 9 4 16 9 16 6 0 9 9 8 19 -1 19 42 91 55 91 4 0 10 -4
13 -10z m-1180 -30 c3 -5 1 -10 -4 -10 -6 0 -11 5 -11 10 0 6 2 10 4 10 3 0 8
-4 11 -10z m-58 -16 c3 -8 1 -29 -5 -47 -11 -32 -11 -31 -7 11 3 44 -2 50 -25
30 -12 -11 -12 -10 -1 5 17 21 30 22 38 1z m-150 -36 c-3 -7 -5 -2 -5 12 0 14
2 19 5 13 2 -7 2 -19 0 -25z m177 -20 c-9 -71 -14 -73 -14 -5 0 33 4 57 10 57
7 0 8 -19 4 -52z m-550 30 c-3 -4 -9 -8 -15 -8 -5 0 -9 4 -9 8 0 5 7 9 15 9 8
0 12 -4 9 -9z m274 -38 c-7 -10 -14 -17 -17 -15 -4 4 18 35 25 35 2 0 -1 -9
-8 -20z m-231 -90 c23 -10 43 -39 43 -63 0 -17 -30 -32 -39 -20 -3 4 -19 16
-36 25 -25 14 -31 24 -33 59 l-3 42 23 -16 c13 -10 33 -21 45 -27z m1612 15
c-9 -35 -42 -94 -50 -89 -5 3 -9 2 -8 -3 3 -19 -3 -39 -17 -58 -12 -17 -16
-18 -24 -5 -8 13 18 72 40 90 3 3 14 22 24 43 10 21 22 37 27 35 6 -2 9 -8 8
-13z m2194 -121 c3 -3 2 -14 -3 -23 -5 -9 -16 -33 -24 -53 -15 -38 -29 -47
-41 -28 -3 6 1 10 10 10 9 0 13 5 10 10 -3 6 -2 10 3 10 6 0 8 8 5 19 -2 10 2
25 11 33 8 9 12 18 9 22 -4 3 -2 6 4 6 5 0 12 -3 16 -6z m-3393 -14 c0 -5 -5
-10 -11 -10 -5 0 -7 5 -4 10 3 6 8 10 11 10 2 0 4 -4 4 -10z m3336 -132 c4 -6
1 -16 -7 -22 -8 -6 -14 -15 -14 -21 0 -20 -27 -85 -35 -85 -18 0 -16 28 8 83
25 57 35 67 48 45z m-2376 -96 c0 -26 -10 -33 -25 -19 -9 8 -10 16 -3 25 15
18 28 15 28 -6z m-1190 -15 c0 -8 -3 -17 -7 -20 -9 -9 -34 13 -27 24 8 14 34
11 34 -4z m817 -117 c-14 -20 -14 -20 -33 1 -12 14 -15 23 -8 26 6 2 20 10 30
18 17 12 19 11 22 -6 2 -10 -3 -28 -11 -39z m-990 -2 c-3 -8 -6 -5 -6 6 -1 11
2 17 5 13 3 -3 4 -12 1 -19z m93 17 c0 -2 -10 -9 -22 -15 -22 -11 -22 -10 -4
4 21 17 26 19 26 11z m668 -127 c-2 -5 -7 -8 -10 -6 -4 2 -14 -6 -22 -17 -15
-20 -15 -20 -16 1 0 11 5 25 11 31 13 13 42 6 37 -9z m-188 -63 c-7 -9 -15
-13 -19 -10 -3 3 1 10 9 15 21 14 24 12 10 -5z m-45 -35 c-3 -5 -16 -15 -28
-21 -21 -10 -21 -9 2 10 25 23 36 27 26 11z m41 -67 c-11 -11 -19 6 -11 24 8
17 8 17 12 0 3 -10 2 -21 -1 -24z m3461 -5 c-3 -8 -6 -5 -6 6 -1 11 2 17 5 13
3 -3 4 -12 1 -19z m-55 3 c-10 -6 -7 -12 13 -25 32 -21 28 -30 -9 -17 -30 12
-37 51 -8 51 13 0 14 -2 4 -9z m85 -23 c-3 -8 -6 -5 -6 6 -1 11 2 17 5 13 3
-3 4 -12 1 -19z m-1907 -253 c7 -8 9 -23 4 -37 -4 -13 -9 -29 -10 -36 -3 -17
-12 -27 -19 -21 -2 3 0 22 6 43 8 27 7 41 -2 52 -6 8 -7 14 -1 14 5 0 15 -7
22 -15z m1145 -25 c13 -6 15 -9 5 -9 -8 0 -22 4 -30 9 -18 12 -2 12 25 0z m50
-20 c3 -5 1 -10 -4 -10 -6 0 -11 5 -11 10 0 6 2 10 4 10 3 0 8 -4 11 -10z
m-1110 -25 c30 -29 33 -83 7 -115 -15 -18 -24 -21 -55 -15 -20 4 -37 8 -37 10
0 1 16 19 35 39 34 36 34 38 20 72 -17 40 -4 44 30 9z m1229 -16 c45 -27 17
-23 -46 7 -44 21 -47 24 -19 18 19 -3 48 -15 65 -25z m-1344 -39 c-6 -11 -13
-20 -16 -20 -2 0 0 9 6 20 6 11 13 20 16 20 2 0 0 -9 -6 -20z m1410 5 c0 -12
-19 -12 -23 0 -4 9 -1 12 9 8 7 -3 14 -7 14 -8z m35 -23 c-3 -3 -11 0 -18 7
-9 10 -8 11 6 5 10 -3 15 -9 12 -12z m-1532 -97 c-5 -28 -2 -35 11 -35 12 0
15 6 10 24 -5 21 -3 24 16 19 21 -6 49 -48 38 -59 -5 -4 -34 -10 -70 -13 -4
-1 -5 -8 -2 -16 4 -8 1 -15 -5 -15 -17 0 -23 44 -11 89 13 50 21 54 13 6z
m1102 -5 c-3 -5 -14 -10 -23 -10 -15 0 -15 2 -2 10 20 13 33 13 25 0z m158
-27 c-7 -2 -19 -2 -25 0 -7 3 -2 5 12 5 14 0 19 -2 13 -5z m37 -19 c0 -8 -4
-12 -10 -9 -5 3 -10 10 -10 16 0 5 5 9 10 9 6 0 10 -7 10 -16z m-330 -40 c0
-8 -19 -13 -24 -6 -3 5 1 9 9 9 8 0 15 -2 15 -3z m-936 -48 c12 -26 14 -41 6
-61 -5 -14 -10 -42 -10 -61 0 -43 -8 -43 -42 0 -23 29 -26 39 -18 60 5 14 10
41 12 61 3 46 30 47 52 1z m862 -8 c4 -7 4 -10 -1 -6 -4 4 -14 0 -21 -10 -12
-15 -12 -15 -7 6 6 24 18 29 29 10z m34 2 c0 -5 -2 -10 -4 -10 -3 0 -8 5 -11
10 -3 6 -1 10 4 10 6 0 11 -4 11 -10z m-1827 -665 c-8 -22 -22 -18 -16 5 3 11
9 17 14 15 4 -3 6 -12 2 -20z m-220 -75 c-11 -10 -21 -13 -25 -7 -8 14 14 36
30 30 10 -4 9 -10 -5 -23z m-58 -59 c3 -5 1 -12 -5 -16 -5 -3 -10 1 -10 9 0
18 6 21 15 7z"/>
<path d="M2431 5592 c-1 -7 -5 -11 -10 -8 -5 3 -15 -2 -22 -11 -11 -13 -11
-15 -1 -9 7 4 20 2 28 -5 20 -17 29 -4 16 23 -6 13 -11 17 -11 10z"/>
<path d="M896 5275 c4 -8 11 -15 17 -15 6 0 8 -3 5 -6 -3 -3 -16 1 -27 8 -18
11 -23 11 -31 -2 -5 -8 -10 -10 -10 -5 0 6 -3 6 -8 -1 -4 -5 -33 -18 -64 -28
-32 -10 -58 -22 -58 -27 0 -16 29 -22 45 -9 8 7 30 13 48 14 38 3 60 13 52 26
-3 4 2 10 10 14 8 3 17 1 20 -4 9 -15 22 -12 29 6 6 17 -9 44 -25 44 -5 0 -6
-7 -3 -15z"/>
<path d="M2123 5365 c0 -8 4 -15 9 -15 4 0 8 7 8 15 0 8 -4 15 -8 15 -5 0 -9
-7 -9 -15z"/>
<path d="M1215 4600 c-3 -5 3 -10 15 -10 12 0 18 -4 15 -10 -3 -6 5 -10 18
-10 14 0 27 7 31 15 3 9 0 15 -9 15 -8 0 -15 -6 -15 -12 -1 -8 -6 -6 -14 5
-15 19 -32 22 -41 7z"/>
<path d="M1623 4568 c4 -11 2 -18 -5 -18 -6 0 -9 -3 -5 -6 3 -3 13 -2 22 3 15
9 15 11 -1 24 -16 12 -17 12 -11 -3z"/>
<path d="M1685 4500 c3 -5 8 -10 11 -10 2 0 4 5 4 10 0 6 -5 10 -11 10 -5 0
-7 -4 -4 -10z"/>
<path d="M1737 4494 c3 -7 9 -14 14 -14 14 0 10 17 -5 23 -10 4 -13 1 -9 -9z"/>
<path d="M1567 4455 c-4 -8 -1 -17 6 -21 7 -4 9 -4 5 1 -4 4 -3 14 3 22 7 8 8
13 1 13 -5 0 -12 -7 -15 -15z"/>
<path d="M900 4430 c0 -5 7 -10 16 -10 8 0 12 5 9 10 -3 6 -10 10 -16 10 -5 0
-9 -4 -9 -10z"/>
<path d="M860 4401 c0 -5 10 -12 23 -16 l22 -8 -22 -4 c-25 -5 -30 -18 -12
-29 15 -9 51 29 44 47 -6 16 -55 25 -55 10z"/>
<path d="M608 4393 c7 -3 16 -2 19 1 4 3 -2 6 -13 5 -11 0 -14 -3 -6 -6z"/>
<path d="M560 4379 c0 -5 5 -7 10 -4 6 3 10 8 10 11 0 2 -4 4 -10 4 -5 0 -10
-5 -10 -11z"/>
<path d="M1200 4361 c-17 -5 -21 -9 -13 -14 12 -7 53 7 53 18 0 6 -7 5 -40 -4z"/>
<path d="M1036 4325 c4 -8 12 -15 20 -15 8 0 11 6 8 15 -4 8 -12 15 -20 15 -8
0 -11 -6 -8 -15z"/>
<path d="M1100 4331 c-32 -8 -32 -32 0 -48 34 -17 80 -17 80 1 0 20 22 25 39
9 10 -10 16 -11 21 -3 4 6 14 8 23 4 19 -7 40 3 32 16 -3 5 -19 5 -35 0 -32
-9 -38 -2 -17 19 10 11 9 12 -3 8 -58 -22 -91 -29 -106 -23 -16 6 -16 8 -4 16
16 11 8 11 -30 1z"/>
<path d="M190 4306 c0 -8 5 -18 10 -21 6 -3 10 1 10 9 0 8 -4 18 -10 21 -5 3
-10 -1 -10 -9z"/>
<path d="M900 4290 c0 -5 7 -7 15 -4 8 4 15 8 15 10 0 2 -7 4 -15 4 -8 0 -15
-4 -15 -10z"/>
<path d="M950 4285 c-8 -9 -8 -15 -2 -15 12 0 26 19 19 26 -2 2 -10 -2 -17
-11z"/>
<path d="M1020 4281 c0 -6 9 -13 21 -16 14 -5 18 -12 14 -23 -5 -13 -3 -14 6
-5 6 6 19 9 28 6 11 -3 9 2 -6 15 -12 11 -20 21 -18 24 2 2 -7 5 -20 6 -14 1
-25 -2 -25 -7z"/>
<path d="M640 4256 c0 -2 9 -6 20 -9 11 -3 20 -1 20 4 0 5 -9 9 -20 9 -11 0
-20 -2 -20 -4z"/>
<path d="M950 4245 c0 -8 5 -15 10 -15 6 0 10 7 10 15 0 8 -4 15 -10 15 -5 0
-10 -7 -10 -15z"/>
<path d="M995 4250 c3 -5 11 -10 16 -10 6 0 7 5 4 10 -3 6 -11 10 -16 10 -6 0
-7 -4 -4 -10z"/>
<path d="M575 4234 c22 -16 35 -18 35 -5 0 5 -12 11 -27 14 -26 5 -26 4 -8 -9z"/>
<path d="M697 4220 c3 -11 7 -20 9 -20 2 0 4 9 4 20 0 11 -4 20 -9 20 -5 0 -7
-9 -4 -20z"/>
<path d="M790 4220 c8 -5 20 -10 25 -10 6 0 3 5 -5 10 -8 5 -19 10 -25 10 -5
0 -3 -5 5 -10z"/>
<path d="M845 4160 c3 -5 10 -10 16 -10 5 0 9 5 9 10 0 6 -7 10 -16 10 -8 0
-12 -4 -9 -10z"/>
<path d="M1125 4160 c3 -5 8 -10 11 -10 2 0 4 5 4 10 0 6 -5 10 -11 10 -5 0
-7 -4 -4 -10z"/>
<path d="M993 4078 c-2 -18 0 -20 7 -8 12 18 13 30 2 30 -4 0 -9 -10 -9 -22z"/>
<path d="M1070 4069 c0 -5 5 -7 10 -4 6 3 10 8 10 11 0 2 -4 4 -10 4 -5 0 -10
-5 -10 -11z"/>
<path d="M1127 3966 c-4 -10 -5 -21 -2 -26 3 -4 -10 -23 -28 -42 -45 -45 -72
-99 -55 -110 7 -4 19 -8 27 -8 8 0 11 -7 8 -20 -4 -15 0 -20 14 -20 11 0 22
-8 26 -17 20 -57 77 -69 136 -30 76 49 75 48 45 42 -21 -4 -28 -2 -28 10 0 26
19 55 36 55 18 0 46 25 38 33 -3 3 -13 3 -22 0 -12 -5 -14 -2 -8 13 6 15 5 17
-5 7 -19 -19 -39 -16 -39 6 0 11 9 23 20 26 23 7 26 21 6 28 -19 8 -85 -3 -92
-14 -9 -14 -57 -11 -52 4 3 6 0 27 -7 46 -9 28 -13 31 -18 17z m128 -184 c-3
-3 -11 0 -18 7 -9 10 -8 11 6 5 10 -3 15 -9 12 -12z m-45 -32 c0 -5 -5 -10
-11 -10 -5 0 -7 5 -4 10 3 6 8 10 11 10 2 0 4 -4 4 -10z m43 -17 c-7 -2 -19
-2 -25 0 -7 3 -2 5 12 5 14 0 19 -2 13 -5z"/>
<path d="M1335 3790 c-3 -5 1 -10 9 -10 9 0 16 5 16 10 0 6 -4 10 -9 10 -6 0
-13 -4 -16 -10z"/>
<path d="M741 3618 c12 -22 19 -22 44 -4 17 12 16 14 -17 18 -33 3 -35 2 -27
-14z"/>
<path d="M1010 3611 c0 -5 7 -14 15 -21 22 -18 19 -33 -4 -20 -36 19 -45 4
-11 -18 17 -10 23 -9 40 8 17 17 18 20 3 20 -9 0 -13 3 -10 7 8 7 -11 33 -24
33 -5 0 -9 -4 -9 -9z"/>
<path d="M667 3512 c-23 -25 -21 -42 4 -42 11 0 17 -4 14 -10 -3 -5 0 -10 8
-10 8 0 18 7 21 16 3 9 13 14 20 11 8 -3 17 1 20 8 6 17 -9 29 -25 20 -5 -4
-18 0 -28 9 -16 15 -19 15 -34 -2z"/>
<path d="M1022 3480 c0 -8 4 -26 8 -40 6 -20 8 -21 8 -5 0 11 -3 29 -8 40 -5
12 -8 14 -8 5z"/>
<path d="M1000 3433 c0 -12 5 -25 10 -28 13 -8 13 15 0 35 -8 12 -10 11 -10
-7z"/>
<path d="M435 3330 c3 -5 11 -10 16 -10 6 0 7 5 4 10 -3 6 -11 10 -16 10 -6 0
-7 -4 -4 -10z"/>
<path d="M1052 3310 c0 -14 2 -19 5 -12 2 6 2 18 0 25 -3 6 -5 1 -5 -13z"/>
<path d="M792 2945 c0 -16 2 -22 5 -12 2 9 2 23 0 30 -3 6 -5 -1 -5 -18z"/>
<path d="M625 2770 c3 -5 11 -10 16 -10 6 0 7 5 4 10 -3 6 -11 10 -16 10 -6 0
-7 -4 -4 -10z"/>
<path d="M710 2640 c0 -5 5 -10 10 -10 6 0 10 5 10 10 0 6 -4 10 -10 10 -5 0
-10 -4 -10 -10z"/>
<path d="M695 2580 c10 -11 22 -20 27 -20 4 0 3 9 -4 20 -7 11 -19 20 -27 20
-11 0 -10 -5 4 -20z"/>
<path d="M680 2552 c0 -4 6 -16 13 -26 10 -14 14 -15 14 -4 0 7 -6 19 -14 26
-7 7 -13 9 -13 4z"/>
<path d="M658 2523 c7 -3 16 -2 19 1 4 3 -2 6 -13 5 -11 0 -14 -3 -6 -6z"/>
<path d="M2910 4456 c-20 -53 26 -121 56 -82 17 24 18 78 2 94 -20 20 -48 14
-58 -12z m43 -19 c7 -18 -6 -38 -18 -29 -15 10 -15 42 0 42 7 0 15 -6 18 -13z"/>
<path d="M1965 3140 c-39 -6 -39 -6 -12 -14 17 -5 32 -4 41 3 7 6 17 7 21 3 5
-4 5 -1 1 6 -4 6 -8 11 -9 11 -1 -1 -20 -5 -42 -9z"/>
<path d="M1920 3060 c-9 -16 -8 -18 5 -14 8 4 15 12 15 20 0 20 -7 17 -20 -6z"/>
<path d="M2460 3790 c0 -5 7 -10 15 -10 8 0 15 5 15 10 0 6 -7 10 -15 10 -8 0
-15 -4 -15 -10z"/>
<path d="M3272 3471 c2 -7 7 -12 11 -12 12 1 9 15 -3 20 -7 2 -11 -2 -8 -8z"/>
<path d="M2610 3240 c0 -5 7 -10 16 -10 8 0 12 5 9 10 -3 6 -10 10 -16 10 -5
0 -9 -4 -9 -10z"/>
<path d="M3545 3590 c3 -5 8 -10 11 -10 2 0 4 5 4 10 0 6 -5 10 -11 10 -5 0
-7 -4 -4 -10z"/>
<path d="M3763 2733 c-15 -5 -17 -23 -4 -23 5 0 11 7 15 15 3 8 4 15 3 14 -1
0 -8 -3 -14 -6z"/>
<path d="M3969 2696 c16 -19 44 -21 39 -3 -3 6 -15 14 -28 15 -21 3 -22 2 -11
-12z"/>
<path d="M2811 2571 c-7 -5 -12 -13 -10 -18 2 -5 12 -1 22 9 18 19 12 24 -12
9z"/>
<path d="M4153 2452 c-7 -4 -2 -14 13 -25 26 -19 31 -12 11 15 -7 9 -18 14
-24 10z"/>
<path d="M2715 2440 c-3 -5 1 -10 9 -10 9 0 16 5 16 10 0 6 -4 10 -9 10 -6 0
-13 -4 -16 -10z"/>
<path d="M3970 2399 c0 -5 9 -9 20 -9 11 0 20 2 20 4 0 2 -9 6 -20 9 -11 3
-20 1 -20 -4z"/>
<path d="M4000 2200 c20 -13 50 -13 50 0 0 6 -15 10 -32 10 -25 0 -29 -3 -18
-10z"/>
<path d="M2510 1086 c0 -8 4 -17 9 -20 5 -4 7 3 4 14 -6 23 -13 26 -13 6z"/>
</g>
</svg>
